<svg width="31" height="31" viewBox="0 0 31 31" fill="none" xmlns="http://www.w3.org/2000/svg">
<g id="q11CcU">
<path id="Vector" d="M15.0036 30.7825C6.90744 30.8226 0.000331254 24.2495 0.0136912 15.7659C0.0270512 7.43599 6.7204 0.77604 15.0503 0.78272C23.5406 0.79608 30.0402 7.73658 30.0202 15.826C30.0001 24.0291 23.26 30.8427 15.0036 30.7759V30.7825ZM12.9395 19.8274C12.9395 21.0498 12.9528 22.2656 12.9328 23.488C12.9328 23.822 13.0463 23.9222 13.367 23.9088C14.1753 23.8888 14.9769 23.9088 15.7851 23.9088C16.0969 23.9088 16.255 23.753 16.2594 23.4412C16.2594 21.0097 16.2594 18.5849 16.2594 16.1534C16.2594 15.8327 16.3663 15.7325 16.6736 15.7392C17.1746 15.7592 17.6756 15.7392 18.1766 15.7459C18.4037 15.7459 18.5239 15.659 18.544 15.4319C18.6108 14.7372 18.6709 14.0425 18.7577 13.3545C18.7978 13.0472 18.6776 12.9871 18.4037 12.9937C17.7958 13.0138 17.1813 12.9937 16.5734 13.0004C16.3529 13.0004 16.2594 12.9203 16.2594 12.6931C16.2661 12.2656 16.2594 11.8448 16.2594 11.4173C16.2594 10.6958 16.5199 10.442 17.2481 10.4286C17.6489 10.4286 18.0563 10.4219 18.4571 10.4286C18.6642 10.4286 18.7577 10.3551 18.751 10.1414C18.751 9.3999 18.751 8.65842 18.751 7.91694C18.751 7.72322 18.6642 7.64306 18.4772 7.64306C17.542 7.64306 16.6001 7.60966 15.6716 7.71654C14.9368 7.80338 14.2554 8.05054 13.7344 8.62502C13.1733 9.23958 12.9929 9.99442 12.9528 10.7893C12.9261 11.4106 12.9328 12.0318 12.9461 12.6531C12.9461 12.9069 12.8526 13.0071 12.5988 12.9937C12.2514 12.9804 11.9041 12.9937 11.5567 12.9937C11.3563 12.9937 11.2494 13.0539 11.2561 13.2743C11.2561 14.0024 11.2561 14.7305 11.2561 15.4653C11.2561 15.659 11.3429 15.7392 11.53 15.7392C11.8373 15.7392 12.1379 15.7392 12.4451 15.7392C12.9328 15.7392 12.9461 15.7526 12.9461 16.2268C12.9461 17.4226 12.9461 18.625 12.9461 19.8207L12.9395 19.8274Z" fill="white"/>
</g>
</svg>
