<svg width="30" height="31" viewBox="0 0 30 31" fill="none" xmlns="http://www.w3.org/2000/svg">
<g id="RTUf3t">
<g id="Group">
<path id="Vector" d="M14.4558 0.782715C14.8364 0.782715 15.217 0.782715 15.5976 0.782715C15.631 0.782715 15.6644 0.796069 15.6977 0.796069C16.1384 0.802746 16.5791 0.856162 17.0198 0.916256C17.821 1.02309 18.6023 1.19669 19.3701 1.43039C20.986 1.92449 22.4749 2.66564 23.8371 3.66052C25.5264 4.8891 26.9018 6.41147 27.9568 8.21427C28.8649 9.76335 29.4725 11.4259 29.7863 13.1954C29.8865 13.7829 29.9733 14.3705 29.98 14.9648C29.98 15.0583 29.98 15.1517 30 15.2385V16.3536C30 16.407 29.9866 16.4604 29.9866 16.5139C29.9866 16.9679 29.9332 17.4153 29.8731 17.8693C29.7529 18.7707 29.5459 19.6521 29.2588 20.5134C28.7247 22.1226 27.9368 23.6049 26.9018 24.947C25.5531 26.6964 23.8972 28.0785 21.9408 29.1001C20.7723 29.7077 19.5437 30.1551 18.2551 30.4355C17.6875 30.5624 17.1199 30.6558 16.539 30.7093C16.3387 30.7293 16.1317 30.7293 15.9314 30.7827H14.0886C14.0485 30.776 14.0018 30.7627 13.9617 30.756C13.6011 30.7159 13.2339 30.6826 12.8733 30.6358C12.199 30.5423 11.5313 30.3954 10.8769 30.2085C8.58668 29.5475 6.56352 28.4124 4.82081 26.7898C2.69751 24.8134 1.26195 22.4164 0.514115 19.6187C0.307126 18.8508 0.166915 18.0696 0.0934675 17.275C0.0734364 17.0881 0.080113 16.8944 0.0200195 16.7142V14.8713C0.0467277 14.7845 0.0600766 14.6977 0.0667536 14.6109C0.100139 14.1502 0.160229 13.6895 0.240353 13.2354C0.500758 11.7331 0.974839 10.3109 1.66925 8.95543C2.60404 7.12592 3.866 5.55681 5.44846 4.24143C6.74381 3.16642 8.18605 2.33179 9.76851 1.73753C10.7834 1.35694 11.825 1.08986 12.8934 0.936287C13.3674 0.869517 13.8482 0.809423 14.3356 0.802746C14.3824 0.802746 14.4291 0.789392 14.4825 0.789392L14.4558 0.782715ZM22.7821 15.7861C22.7821 14.711 22.7821 13.6427 22.7353 12.5677C22.7153 12.0803 22.6486 11.5995 22.5217 11.1255C22.3214 10.391 21.9541 9.75 21.3999 9.22251C20.6454 8.50807 19.724 8.19424 18.7224 8.08073C18.4754 8.05403 18.2283 8.0607 17.9813 8.04067C17.5206 8.00729 17.0532 8.00061 16.5925 8.00061C15.01 8.00061 13.4209 7.9739 11.8384 8.04735C11.3777 8.06738 10.9236 8.11412 10.483 8.22763C9.78855 8.40123 9.16757 8.71505 8.64009 9.20248C7.90561 9.88354 7.5317 10.7382 7.36478 11.7064C7.26462 12.2672 7.25794 12.8348 7.25126 13.3957C7.23791 15.1918 7.21121 16.9946 7.2713 18.7907C7.27798 19.0778 7.29133 19.365 7.33139 19.6521C7.40484 20.1729 7.52503 20.6803 7.75872 21.1477C8.39972 22.4564 9.4814 23.1575 10.8836 23.4179C11.2508 23.4847 11.6181 23.498 11.992 23.5181C12.5061 23.5381 13.0136 23.5581 13.5277 23.5581C15.0901 23.5581 16.6459 23.5849 18.2083 23.5114C18.7358 23.4847 19.2432 23.4179 19.7507 23.271C20.8391 22.9505 21.6603 22.2962 22.1945 21.2946C22.5284 20.667 22.6819 19.9926 22.7353 19.2915C22.7754 18.744 22.7888 18.1898 22.7955 17.6423C22.8021 17.0213 22.7955 16.407 22.7955 15.7861H22.7821Z" fill="white"/>
<path id="Vector_2" d="M21.4202 15.8063C21.4202 16.5007 21.4268 17.1884 21.4202 17.8828C21.4135 18.4036 21.4001 18.9244 21.34 19.4453C21.3 19.8125 21.2132 20.1664 21.0596 20.5002C20.7191 21.2614 20.1315 21.7488 19.3303 21.9759C18.9096 22.096 18.4823 22.1361 18.0483 22.1561C16.5059 22.2296 14.9701 22.1962 13.4277 22.1962C12.8401 22.1962 12.2593 22.1762 11.6717 22.1495C11.2243 22.1294 10.7836 22.0426 10.363 21.869C9.55504 21.5352 9.04758 20.9342 8.80721 20.0996C8.68702 19.6923 8.64697 19.2716 8.62694 18.8443C8.59355 18.1299 8.6069 17.4088 8.59355 16.6943C8.5802 16.2202 8.57351 15.7462 8.58687 15.2788C8.60022 14.6044 8.58688 13.9233 8.60691 13.2489C8.62026 12.8283 8.62026 12.4076 8.68703 11.9937C8.74712 11.6398 8.83392 11.2992 8.99417 10.9721C9.34805 10.2643 9.90892 9.81026 10.6634 9.58992C11.0707 9.46973 11.4914 9.42299 11.9187 9.40296C13.1072 9.34955 14.2957 9.35622 15.4843 9.35622C16.1987 9.35622 16.9198 9.3629 17.6343 9.38293C18.0282 9.39629 18.4222 9.39629 18.8161 9.46306C19.17 9.52315 19.5239 9.60995 19.8444 9.77688C20.5321 10.1308 20.9795 10.6783 21.1998 11.4194C21.3067 11.7933 21.3601 12.1673 21.3801 12.5545C21.4469 13.6362 21.4268 14.7179 21.4268 15.7996L21.4202 15.8063ZM18.983 15.7929C18.9964 13.6028 17.2203 11.7867 14.9835 11.8C12.8802 11.8067 11.0173 13.476 11.0173 15.7862C11.0173 18.1365 12.9336 19.7858 15.0302 19.7658C17.227 19.7457 18.983 17.9563 18.9764 15.7929H18.983ZM19.17 10.705C18.6292 10.6916 18.2486 11.1657 18.2552 11.6064C18.2619 12.1138 18.6492 12.5145 19.1566 12.5211C19.6574 12.5211 20.0647 12.1205 20.0647 11.6131C20.0647 11.0989 19.6708 10.6983 19.1633 10.6983L19.17 10.705Z" fill="white"/>
<path id="Vector_3" d="M17.6272 15.7929C17.6406 17.1016 16.5856 18.4036 14.9965 18.4036C13.5542 18.4036 12.3857 17.2552 12.3857 15.7862C12.3857 14.3239 13.5476 13.1555 15.0232 13.1621C16.5856 13.1688 17.6539 14.4508 17.6339 15.7929H17.6272Z" fill="white"/>
</g>
</g>
</svg>
